# xmcd
#
# Track frame offsets:
#	150
#	19125
#	38175
#	56850
#	74175
#	92400
#	110175
#	126525
#	144225
#	163200
#	182250
#	200925
#	218250
#	236475
#	254250
#	270600
#
# Disc length: 3844 seconds
#
# Revision: 1
# Processed by: cddbd v1.5.2PL0 Copyright (c) Steve Scherf et al.
# Submitted via: audiograbber 1.83.01
#
DISCID=f40f0210
DTITLE=Various Artist - Party Tyme Karaoke - Guy Country 4
DYEAR=2007
DGENRE=Karaoke
TTITLE0=Kenny Chesney - Beer in Mexico - (Karaoke)
TTITLE1=Rodney Adkins - Watching You - (Karaoke)
TTITLE2=Trace Adkins - Ladies Love Country Boys - (Karaoke)
TTITLE3=Billy Carrington - Good Directions - (Karaoke)
TTITLE4=Josh Turner - Would You Go With Me - (Karaoke)
TTITLE5=Rascal Flatts - Stand - (Karaoke)
TTITLE6=Tobey Keith - High Maintenance Woman - (Karaoke)
TTITLE7=Heartland - I Love Her First - (Karaoke)
TTITLE8=Kenny Chesney - Beer in Mexico
TTITLE9=Rodney Adkins - Watching You
TTITLE10=Trace Adkins - Ladies Love Country Boys
TTITLE11=Billy Carrington - Good Directions
TTITLE12=Josh Turner - Would You Go With Me
TTITLE13=Rascal Flatts - Stand
TTITLE14=Tobey Keith - High Maintenance Woman
TTITLE15=Heartland - I Love Her First
EXTD=
EXTT0=
EXTT1=
EXTT2=
EXTT3=
EXTT4=
EXTT5=
EXTT6=
EXTT7=
EXTT8=
EXTT9=
EXTT10=
EXTT11=
EXTT12=
EXTT13=
EXTT14=
EXTT15=
PLAYORDER=
